HIERARCHY
ROOT Hips
{
	OFFSET	0.00	0.00	0.00
	CHANNELS 6 Xposition Yposition Zposition Zrotation Xrotation Yrotation
	JOINT LeftUpperLeg
	{
		OFFSET	 0.000000	-0.151056	 0.000000
		CHANNELS 3 Zrotation Xrotation Yrotation
		JOINT LeftLowerLeg
		{
			OFFSET	 0.559505	 0.000000	 0.000000
			CHANNELS 3 Zrotation Xrotation Yrotation
			JOINT LeftFoot
			{
				OFFSET	 0.559505	 0.000000	 0.000000
				CHANNELS 3 Zrotation Xrotation Yrotation
				JOINT LeftToes
				{
					OFFSET	 0.170881	 0.000000	 0.250536
					CHANNELS 3 Zrotation Xrotation Yrotation
					End Site
					{
						OFFSET	 0.170881	 0.000000	 0.250536
					}
				}
			}
		}
	}
	JOINT RightUpperLeg
	{
		OFFSET	 0.000000	 0.151056	-0.000000
		CHANNELS 3 Zrotation Xrotation Yrotation
		JOINT RightLowerLeg
		{
			OFFSET	 0.559505	 0.000000	 0.000000
			CHANNELS 3 Zrotation Xrotation Yrotation
			JOINT RightFoot
			{
				OFFSET	 0.559505	 0.000000	 0.000000
				CHANNELS 3 Zrotation Xrotation Yrotation
				JOINT RightToes
				{
					OFFSET	 0.170881	 0.000000	 0.250536
					CHANNELS 3 Zrotation Xrotation Yrotation
					End Site
					{
						OFFSET	 0.170881	 0.000000	 0.250536
					}
				}
			}
		}
	}
	JOINT Spine
	{
		OFFSET	 0.128686	 0.000000	-0.000155
		CHANNELS 3 Zrotation Xrotation Yrotation
		JOINT Chest
		{
			OFFSET	 0.193962	 0.000000	-0.000154
			CHANNELS 3 Zrotation Xrotation Yrotation
			JOINT B_Spine2
			{
				OFFSET	 0.193962	 0.000000	-0.000154
				CHANNELS 3 Zrotation Xrotation Yrotation
				JOINT LeftShoulder
				{
					OFFSET	 0.193962	-0.057714	-0.000009
					CHANNELS 3 Zrotation Xrotation Yrotation
					JOINT LeftUpperArm
					{
						OFFSET	 0.279178	 0.000000	 0.000000
						CHANNELS 3 Zrotation Xrotation Yrotation
						JOINT LeftLowerArm
						{
							OFFSET	 0.418437	-0.000000	 0.000000
							CHANNELS 3 Zrotation Xrotation Yrotation
							JOINT LeftHand
							{
								OFFSET	 0.319113	 0.000000	-0.000000
								CHANNELS 3 Zrotation Xrotation Yrotation
								JOINT LeftThumbProximal
								{
									OFFSET	 0.141490	 0.101064	-0.000081
									CHANNELS 3 Zrotation Xrotation Yrotation
									JOINT LeftThumbIntermediate
									{
										OFFSET	 0.061423	 0.000000	 0.000000
										CHANNELS 3 Zrotation Xrotation Yrotation
										JOINT LeftThumbDistal
										{
											OFFSET	 0.061423	-0.000000	 0.000000
											CHANNELS 3 Zrotation Xrotation Yrotation
											End Site
											{
												OFFSET	 0.061423	-0.000000	 0.000000
											}
										}
									}
								}
								JOINT LeftIndexProximal
								{
									OFFSET	 0.205475	 0.059923	-0.034993
									CHANNELS 3 Zrotation Xrotation Yrotation
									JOINT LeftIndexIntermediate
									{
										OFFSET	 0.073708	-0.000000	 0.000000
										CHANNELS 3 Zrotation Xrotation Yrotation
										JOINT LeftIndexDistal
										{
											OFFSET	 0.073708	 0.000000	-0.000000
											CHANNELS 3 Zrotation Xrotation Yrotation
											End Site
											{
												OFFSET	 0.073708	 0.000000	-0.000000
											}
										}
									}
								}
								JOINT LeftMiddleProximal
								{
									OFFSET	 0.205475	 0.019497	-0.034961
									CHANNELS 3 Zrotation Xrotation Yrotation
									JOINT LeftMiddleIntermediate
									{
										OFFSET	 0.085992	-0.000000	 0.000000
										CHANNELS 3 Zrotation Xrotation Yrotation
										JOINT LeftMiddleDistal
										{
											OFFSET	 0.085993	 0.000000	 0.000000
											CHANNELS 3 Zrotation Xrotation Yrotation
											End Site
											{
												OFFSET	 0.085993	 0.000000	 0.000000
											}
										}
									}
								}
								JOINT LeftRingProximal
								{
									OFFSET	 0.205475	-0.020928	-0.034929
									CHANNELS 3 Zrotation Xrotation Yrotation
									JOINT LeftRingIntermediate
									{
										OFFSET	 0.073708	 0.000000	 0.000000
										CHANNELS 3 Zrotation Xrotation Yrotation
										JOINT LeftRingDistal
										{
											OFFSET	 0.073708	 0.000000	 0.000000
											CHANNELS 3 Zrotation Xrotation Yrotation
											End Site
											{
												OFFSET	 0.073708	 0.000000	 0.000000
											}
										}
									}
								}
								JOINT LeftLittleProximal
								{
									OFFSET	 0.205475	-0.061354	-0.034897
									CHANNELS 3 Zrotation Xrotation Yrotation
									JOINT LeftLittleIntermediate
									{
										OFFSET	 0.061423	-0.000000	 0.000000
										CHANNELS 3 Zrotation Xrotation Yrotation
										JOINT LeftLittleDistal
										{
											OFFSET	 0.061423	 0.000000	-0.000000
											CHANNELS 3 Zrotation Xrotation Yrotation
											End Site
											{
												OFFSET	 0.061423	 0.000000	-0.000000
											}
										}
									}
								}
							}
						}
					}
				}
				JOINT Neck
				{
					OFFSET	 0.193962	-0.000000	-0.000102
					CHANNELS 3 Zrotation Xrotation Yrotation
					JOINT Head
					{
						OFFSET	 0.128209	 0.000000	 0.000000
						CHANNELS 3 Zrotation Xrotation Yrotation
						End Site
						{
							OFFSET	 0.128209	 0.000000	 0.000000
						}
					}
				}
				JOINT RightShoulder
				{
					OFFSET	 0.193962	 0.057714	 0.000009
					CHANNELS 3 Zrotation Xrotation Yrotation
					JOINT RightUpperArm
					{
						OFFSET	 0.279177	 0.000000	 0.000000
						CHANNELS 3 Zrotation Xrotation Yrotation
						JOINT RightLowerArm
						{
							OFFSET	 0.418437	-0.000000	 0.000000
							CHANNELS 3 Zrotation Xrotation Yrotation
							JOINT RightHand
							{
								OFFSET	 0.319113	 0.000000	 0.000000
								CHANNELS 3 Zrotation Xrotation Yrotation
								JOINT RightThumbProximal
								{
									OFFSET	 0.141490	-0.101064	-0.000081
									CHANNELS 3 Zrotation Xrotation Yrotation
									JOINT RightThumbIntermediate
									{
										OFFSET	 0.061423	 0.000000	-0.000000
										CHANNELS 3 Zrotation Xrotation Yrotation
										JOINT RightThumbDistal
										{
											OFFSET	 0.061423	-0.000000	 0.000000
											CHANNELS 3 Zrotation Xrotation Yrotation
											End Site
											{
												OFFSET	 0.061423	-0.000000	 0.000000
											}
										}
									}
								}
								JOINT RightIndexProximal
								{
									OFFSET	 0.205475	-0.059923	-0.034993
									CHANNELS 3 Zrotation Xrotation Yrotation
									JOINT RightIndexIntermediate
									{
										OFFSET	 0.073708	 0.000000	 0.000000
										CHANNELS 3 Zrotation Xrotation Yrotation
										JOINT RightIndexDistal
										{
											OFFSET	 0.073708	 0.000000	-0.000000
											CHANNELS 3 Zrotation Xrotation Yrotation
											End Site
											{
												OFFSET	 0.073708	 0.000000	-0.000000
											}
										}
									}
								}
								JOINT RightMiddleProximal
								{
									OFFSET	 0.205475	-0.019498	-0.034961
									CHANNELS 3 Zrotation Xrotation Yrotation
									JOINT RightMiddleIntermediate
									{
										OFFSET	 0.085992	 0.000000	-0.000000
										CHANNELS 3 Zrotation Xrotation Yrotation
										JOINT RightMiddleDistal
										{
											OFFSET	 0.085992	-0.000000	 0.000000
											CHANNELS 3 Zrotation Xrotation Yrotation
											End Site
											{
												OFFSET	 0.085992	-0.000000	 0.000000
											}
										}
									}
								}
								JOINT RightRingProximal
								{
									OFFSET	 0.205475	 0.020928	-0.034929
									CHANNELS 3 Zrotation Xrotation Yrotation
									JOINT RightRingIntermediate
									{
										OFFSET	 0.073708	 0.000000	 0.000000
										CHANNELS 3 Zrotation Xrotation Yrotation
										JOINT RightRingDistal
										{
											OFFSET	 0.073708	 0.000000	-0.000000
											CHANNELS 3 Zrotation Xrotation Yrotation
											End Site
											{
												OFFSET	 0.073708	 0.000000	-0.000000
											}
										}
									}
								}
								JOINT RightLittleProximal
								{
									OFFSET	 0.205475	 0.061354	-0.034897
									CHANNELS 3 Zrotation Xrotation Yrotation
									JOINT RightLittleIntermediate
									{
										OFFSET	 0.061423	-0.000000	 0.000000
										CHANNELS 3 Zrotation Xrotation Yrotation
										JOINT RightLittleDistal
										{
											OFFSET	 0.061424	 0.000000	 0.000000
											CHANNELS 3 Zrotation Xrotation Yrotation
											End Site
											{
												OFFSET	 0.061424	 0.000000	 0.000000
											}
										}
									}
								}
							}
						}
					}
				}
			}
		}
	}
}
MOTION
Frames:    6
Frame Time: 0.01666667
 0.125651	-0.029919	 0.907410	 29.570320	 3.847363	-101.084100	-140.565100	-29.009160	-47.000510	-22.370530	 1.421136	 86.550650	-25.628040	 8.493236	-30.429570	-0.000000	 0.000083	-97.717030	 143.984200	 46.543980	-38.015310	-4.004240	 1.480400	 69.746770	 26.731030	-0.902607	 1.932003	 0.000008	 0.000064	-96.645230	-0.381790	-13.447100	-2.944594	-3.031722	-0.449075	-5.833711	-0.000000	-0.008579	-0.000003	 86.124890	 0.312862	 170.780700	 34.162730	-8.788080	-37.151420	 4.687617	-32.753250	 91.650380	 168.978600	-79.359090	 156.782000	 67.906500	 38.382710	-26.498540	-9.359631	 1.490070	-17.204850	-14.674720	 2.342469	-33.639550	 15.333420	-7.124385	-1.823749	 1.543830	-3.672570	-31.786380	 0.962345	-3.183076	-31.964850	 2.690129	-4.167379	 12.027850	 3.289505	-5.310451	-54.734920	 0.802480	-3.131923	-30.365560	-9.171824	 1.665513	-23.698840	 1.240501	-3.497124	-28.445400	 0.627224	-3.081315	-28.627860	-13.891580	 4.740676	-38.411580	 2.151801	-4.102737	-38.885160	 0.636460	-3.083819	-28.719050	-8.272632	-2.285721	-19.401770	-45.028480	 45.490430	 58.146410	-84.997040	-0.085688	 178.030200	-31.320180	-8.651826	-1.004327	-11.293760	 14.094840	 72.705080	-148.575100	 68.768580	 146.453700	-65.377720	-38.678100	-31.493930	 11.620480	-2.259370	-20.399270	 16.954980	-3.257982	-36.889710	-14.314510	 6.959577	-6.622940	-1.951930	 3.948760	-36.477320	-1.421518	 3.358619	-36.649790	-2.300079	 3.886003	 7.227973	-3.558905	 5.724895	-59.447980	-1.266320	 3.294381	-35.049560	 8.844821	-1.913022	-28.489810	-1.663468	 3.748758	-33.134020	-1.095642	 3.229755	-33.310850	 13.197540	-4.756447	-43.225730	-2.523484	 4.427627	-43.581610	-1.104609	 3.232960	-33.402130
 0.125655	-0.033517	 0.895546	 30.538780	 4.614893	-101.434900	-139.672500	-29.195840	-48.958450	-23.201190	 0.619460	 88.554230	-25.019400	 8.397788	-30.888210	-0.000000	 0.000083	-97.974440	 143.849200	 46.531030	-37.433700	-4.353024	 1.550606	 70.434350	 26.999410	-1.077979	 1.241534	 0.000008	 0.000064	-96.214160	-0.553574	-13.442570	-2.795563	-3.198362	-0.436211	-5.646014	-0.000000	-0.008579	-0.000003	 85.507510	 0.365247	 170.717500	 32.662620	-8.411071	-36.191760	 4.690652	-32.322330	 91.701320	 168.983000	-79.344310	 157.177000	 67.768940	 38.392370	-26.803760	-9.908547	 1.664036	-17.977830	-15.228770	 2.551239	-34.425850	 15.084790	-7.092037	-2.986295	 1.644615	-3.736281	-32.922130	 1.074818	-3.222097	-33.099170	 2.590814	-4.101767	 10.865090	 3.357867	-5.408764	-55.875800	 0.915965	-3.167789	-31.499650	-9.096984	 1.729288	-24.858950	 1.344752	-3.554833	-29.580600	 0.741709	-3.113720	-29.761720	-13.726520	 4.751893	-39.577550	 2.244085	-4.178483	-40.022210	 0.750897	-3.116401	-29.852940	-8.434623	-2.286145	-19.214710	-43.675650	 46.300640	 56.852390	-84.756090	-0.090084	 178.024500	-32.264910	-8.911267	-1.212691	-11.254610	 14.155060	 72.228490	-148.482800	 68.754520	 146.362000	-65.669910	-38.634270	-30.931880	 11.255060	-2.125454	-19.880780	 16.586640	-3.099924	-36.362100	-14.478240	 6.991910	-5.845008	-1.887323	 3.901762	-35.716400	-1.348023	 3.327624	-35.889910	-2.359705	 3.933419	 8.006063	-3.517510	 5.656169	-58.683350	-1.192008	 3.265456	-34.289830	 8.901011	-1.875781	-27.712830	-1.596281	 3.705626	-32.373520	-1.020511	 3.203099	-32.551270	 13.312170	-4.759441	-42.445180	-2.465089	 4.372949	-42.819760	-1.029519	 3.206186	-32.642560
 0.125644	-0.037529	 0.886487	 31.516000	 5.323178	-101.763000	-138.972000	-29.387080	-50.697460	-23.956710	-0.070978	 90.158870	-24.386630	 8.267646	-31.257320	-0.000000	 0.000083	-98.167790	 143.731800	 46.515070	-36.683580	-4.746589	 1.659980	 70.771050	 27.233360	-1.177996	 0.869271	 0.000008	 0.000064	-95.938780	-0.731142	-13.438380	-2.609146	-3.370649	-0.423503	-5.419629	-0.000000	-0.008579	-0.000003	 84.811790	 0.424884	 170.651700	 31.008330	-7.984572	-35.086500	 4.696199	-31.802120	 91.716060	 168.885200	-79.318910	 157.534300	 67.616990	 38.402220	-27.168930	-10.550610	 1.877907	-18.884120	-15.876560	 2.806364	-35.347870	 14.794920	-7.047942	-4.348271	 1.761103	-3.813465	-34.253140	 1.205619	-3.270646	-34.428500	 2.478364	-4.022767	 9.502953	 3.435481	-5.525688	-57.212990	 1.048032	-3.212666	-32.828710	-9.005701	 1.800960	-26.218380	 1.465451	-3.625074	-30.910960	 0.875034	-3.154565	-31.090480	-13.530570	 4.759038	-40.943660	 2.350307	-4.269557	-41.354770	 0.884159	-3.157454	-31.181710	-8.601304	-2.290157	-18.989150	-42.151890	 47.224480	 55.305400	-84.491170	-0.094667	 178.024000	-33.342930	-9.207327	-1.491493	-11.208680	 14.221310	 71.679410	-148.364000	 68.734710	 146.241300	-66.001890	-38.587440	-30.289680	 10.837830	-1.977097	-19.289800	 16.165960	-2.924248	-35.760790	-14.665670	 7.026154	-4.957846	-1.812918	 3.849233	-34.848930	-1.263742	 3.293478	-35.023580	-2.429403	 3.986673	 8.893357	-3.469206	 5.578496	-57.811680	-1.106832	 3.233684	-33.423680	 8.963631	-1.831922	-26.826920	-1.518996	 3.657543	-31.506480	-0.934439	 3.173926	-31.685320	 13.441970	-4.760234	-41.555130	-2.397641	 4.311566	-41.951230	-0.943491	 3.176876	-31.776580
 0.125651	-0.041555	 0.882670	 32.379990	 5.852615	-101.999400	-138.657600	-29.518700	-51.921080	-24.534500	-0.476232	 91.042360	-23.790430	 8.108338	-31.463680	-0.000000	 0.000083	-98.255490	 143.633400	 46.500490	-35.770860	-5.147017	 1.820781	 70.573350	 27.426300	-1.162005	 0.970164	 0.000008	 0.000064	-95.908220	-0.895357	-13.435090	-2.405149	-3.530037	-0.412429	-5.178610	-0.000000	-0.008579	-0.000003	 84.110850	 0.485502	 170.591400	 29.327900	-7.556002	-33.940880	 4.703727	-31.246850	 91.693350	 168.691300	-79.285610	 157.812100	 67.468970	 38.410760	-27.558110	-11.218630	 2.112452	-19.829650	-16.550190	 3.084471	-36.309900	 14.494480	-6.994879	-5.768073	 1.880656	-3.896820	-35.641280	 1.340802	-3.324491	-35.814830	 2.365658	-3.938084	 8.082940	 3.513501	-5.649522	-58.607770	 1.184626	-3.262713	-34.214760	-8.906527	 1.872087	-27.636020	 1.589568	-3.701291	-32.298410	 1.013036	-3.200440	-32.476230	-13.323570	 4.759555	-42.368070	 2.458815	-4.367146	-42.744620	 1.022092	-3.203542	-32.567480	-8.754710	-2.297488	-18.749060	-40.597980	 48.158830	 53.649460	-84.225530	-0.098997	 178.028700	-34.440070	-9.505777	-1.814715	-11.160270	 14.287630	 71.113410	-148.230000	 68.711040	 146.103200	-66.339780	-38.543050	-29.632310	 10.411030	-1.830314	-18.686370	 15.735480	-2.749793	-35.146840	-14.857900	 7.058228	-4.051515	-1.736117	 3.796750	-33.962920	-1.177141	 3.259920	-34.138720	-2.502445	 4.040140	 9.799828	-3.418661	 5.499935	-56.921510	-1.019351	 3.202566	-32.538990	 9.025959	-1.785612	-25.922060	-1.439326	 3.609645	-30.620950	-0.846085	 3.145474	-30.800840	 13.573460	-4.758148	-40.645890	-2.327805	 4.249933	-41.064180	-0.855183	 3.148283	-30.892100
 0.125638	-0.046362	 0.882836	 33.308930	 6.319035	-102.192300	-138.621900	-29.614850	-52.915980	-25.080870	-0.694661	 91.483050	-23.114920	 7.896873	-31.571650	-0.000000	 0.000083	-98.272450	 143.522900	 46.483680	-34.527950	-5.607309	 2.063009	 69.866890	 27.633250	-1.047919	 1.470402	 0.000008	 0.000064	-96.068060	-1.067200	-13.432400	-2.153474	-3.696883	-0.401706	-4.888225	-0.000000	-0.008579	-0.000003	 83.304890	 0.555671	 170.530500	 27.866610	-7.082374	-32.670850	 4.714427	-30.573990	 91.627290	 168.365000	-79.238940	 158.043600	 67.307660	 38.418350	-28.032790	-12.017150	 2.409131	-20.963630	-17.349280	 3.431598	-37.455680	 14.139810	-6.922452	-7.456770	 2.020266	-3.999749	-37.293280	 1.499932	-3.392804	-37.464610	 2.237859	-3.834503	 6.393855	 3.602399	-5.799316	-60.267990	 1.345550	-3.326552	-35.864200	-8.783180	 1.951629	-29.322900	 1.734828	-3.795870	-33.949540	 1.175770	-3.259358	-34.125300	-13.073800	 4.750626	-44.062530	 2.584832	-4.486663	-44.398690	 1.184735	-3.262714	-34.216570	-8.914283	-2.309514	-18.459820	-38.759300	 49.228030	 51.610320	-83.909530	-0.103868	 178.039200	-35.703970	-9.843227	-2.234313	-11.101560	 14.365870	 70.443020	-148.059100	 68.679690	 145.925600	-66.734720	-38.495370	-28.858700	 9.909247	-1.664127	-17.978290	 15.229200	-2.551411	-34.426500	-15.084590	 7.092134	-2.987229	-1.644946	 3.736664	-32.922890	-1.074840	 3.222238	-33.100010	-2.590727	 4.101688	 10.864220	-3.357783	 5.408731	-55.876700	-0.916066	 3.167761	-31.500490	 9.096939	-1.729309	-24.859800	-1.344877	 3.554997	-29.581450	-0.741827	 3.113818	-29.762580	 13.726320	-4.751981	-39.578380	-2.244629	 4.178973	-40.022920	-0.750975	 3.116461	-29.853820
 0.125651	-0.051238	 0.886349	 34.213250	 6.686371	-102.327100	-138.840100	-29.658860	-53.620200	-25.557920	-0.716549	 91.497190	-22.432130	 7.659979	-31.579860	-0.000000	 0.000083	-98.225650	 143.407300	 46.466640	-33.094350	-6.061450	 2.364974	 68.766560	 27.832070	-0.858458	 2.265864	 0.000008	 0.000064	-96.373810	-1.220672	-13.430840	-1.884076	-3.845909	-0.393078	-4.584205	-0.000000	-0.008579	-0.000003	 82.498870	 0.626155	 170.478900	 25.821220	-6.601223	-31.251340	 4.727359	-29.865000	 91.519780	 167.934400	-79.183810	 158.187500	 67.156500	 38.423370	-28.537560	-12.827840	 2.728835	-22.119370	-18.174790	 3.810205	-38.644890	 13.775320	-6.836712	-9.207465	 2.161912	-4.110729	-39.007060	 1.662872	-3.468473	-39.176010	 2.112231	-3.724003	 4.642560	 3.690000	-5.957361	-61.990600	 1.510484	-3.397633	-37.575220	-8.649517	 2.028195	-31.072610	 1.882589	-3.898360	-35.662390	 1.342730	-3.325392	-35.835930	-12.811350	 4.730436	-45.819580	 2.711872	-4.614436	-46.114700	 1.351593	-3.329007	-35.927230	-9.055625	-2.325287	-18.157080	-36.845860	 50.285570	 49.411090	-83.575530	-0.108720	 178.054500	-36.984540	-10.175330	-2.706769	-11.039310	 14.447250	 69.748680	-147.871400	 68.643840	 145.728800	-67.138180	-38.451390	-28.062580	 9.393419	-1.500404	-17.251860	 14.708560	-2.354975	-33.687540	-15.318250	 7.122683	-1.894659	-1.550269	 3.676728	-31.855530	-0.969163	 3.185497	-32.033980	-2.684034	 4.163405	 11.956940	-3.293589	 5.316298	-54.804530	-0.809433	 3.133992	-30.434680	 9.167326	-1.669431	-23.769590	-1.246934	 3.500699	-28.514590	-0.634249	 3.083296	-28.696960	 13.881500	-4.741565	-38.482630	-2.157949	 4.107733	-38.954370	-0.643444	 3.085767	-28.788180
